<?xml version="1.0" encoding="utf-8"?>
<!-- Generator: Adobe Illustrator 28.1.0, SVG Export Plug-In . SVG Version: 6.00 Build 0)  -->
<svg version="1.1" id="Calque_1" xmlns="http://www.w3.org/2000/svg" xmlns:xlink="http://www.w3.org/1999/xlink" x="0px" y="0px"
	 viewBox="0 0 595.28 841.89" style="enable-background:new 0 0 595.28 841.89;" xml:space="preserve">
<style type="text/css">
	.st0{fill:#FFFFFF;}
</style>
<g>
	<g>
		<path class="st0" d="M297.92,78.58c91.88-0.88,173.11,72.78,173.16,172.59c0.05,97.2-77.13,172.71-172.25,173.08
			c-96.16,0.38-173.65-75.65-173.77-172.78C124.93,151.84,205.88,77.87,297.92,78.58z M337.26,251.6
			c1.54-20.67-17.14-39.79-38.9-39.56c-21.58,0.22-39.27,17.52-39.4,38.93c-0.13,21.83,17.43,39.41,39.35,39.41
			C320.31,290.39,337.23,273.54,337.26,251.6z"/>
		<path class="st0" d="M424.26,763.89c8.86-6.36,18.04-12.13,26.23-19.07c7.24-6.14,12.81-13.74,13.21-24.11
			c0.34-8.96-3.28-15.97-9.38-21.99c-7.66-7.56-17.25-11.49-27.36-14.6c-75.74-23.34-151.51-46.57-227.13-70.27
			c-29.05-9.1-55.22-23.37-74.36-47.96c-19.14-24.58-25.41-52.7-21.86-83.34c4.33-37.36,24.04-64.37,55.92-83.22
			c1.17-0.69,2.49-1.12,4.15-1.02c-3.87,2.55-8.1,4.68-11.52,7.73c-5.21,4.64-10.59,9.39-14.56,15.03c-6.77,9.63-5.44,21,2.3,29.93
			c6.55,7.56,15.06,11.76,24.46,14.67c78.79,24.39,157.64,48.59,236.28,73.44c29.96,9.47,55.95,25.49,74.15,52.03
			c11.51,16.79,17.14,35.45,18.38,55.87c1.88,30.96-5.3,58.97-24.78,83.33C456.56,745.16,441.92,756.51,424.26,763.89z"/>
	</g>
</g>
</svg>
